<?xml version="1.0" standalone="no"?>
<!DOCTYPE svg PUBLIC "-//W3C//DTD SVG 20010904//EN"
 "http://www.w3.org/TR/2001/REC-SVG-20010904/DTD/svg10.dtd">
<svg version="1.0" xmlns="http://www.w3.org/2000/svg"
 width="622.000000pt" height="518.000000pt" viewBox="0 0 622.000000 518.000000"
 preserveAspectRatio="xMidYMid meet">

<g transform="translate(0.000000,518.000000) scale(0.100000,-0.100000)"
fill="#000000" stroke="none">
<path d="M0 2590 l0 -2590 3110 0 3110 0 0 2590 0 2590 -3110 0 -3110 0 0
-2590z m1974 1661 c78 -34 83 -50 89 -294 3 -117 8 -222 12 -234 7 -23 6 -23
-74 -23 -64 0 -81 3 -81 14 0 26 -17 27 -57 4 -32 -20 -52 -23 -133 -23 -83 0
-99 3 -128 23 -92 66 -89 220 6 275 18 10 81 27 142 37 135 23 150 30 150 74
0 41 -17 56 -69 63 -53 7 -96 -12 -111 -48 -12 -29 -13 -29 -92 -29 -78 0 -80
1 -74 23 3 12 6 27 6 34 0 7 14 28 31 48 58 66 122 86 251 80 58 -2 102 -10
132 -24z m566 -46 l0 -75 -46 0 c-62 0 -106 -23 -132 -69 -20 -35 -22 -53 -22
-200 l0 -161 -80 0 -80 0 0 280 0 280 75 0 75 0 0 -42 0 -43 27 34 c32 40 94
70 146 71 l37 0 0 -75z m-1374 -124 c29 -95 55 -176 58 -178 2 -3 16 33 30 79
14 46 38 126 54 178 l30 95 80 3 81 3 -93 -278 -93 -278 -90 -3 -91 -3 -37
113 c-21 62 -64 189 -96 281 l-59 168 86 -3 86 -3 54 -174z m-6 -1311 l0 -390
-80 0 -80 0 0 390 0 390 80 0 80 0 0 -390z m932 258 l3 -83 58 -3 57 -3 0 -49
0 -49 -57 -3 -58 -3 0 -151 c0 -175 4 -184 71 -184 l44 0 0 -59 0 -59 -47 -4
c-86 -7 -163 7 -190 35 -34 34 -42 84 -43 270 l0 157 -45 0 -45 0 0 50 0 50
45 0 45 0 0 78 c0 43 3 82 7 85 3 4 39 7 79 7 l73 0 3 -82z m-435 -96 c85 -45
139 -133 150 -247 l6 -65 -202 0 -201 0 0 -22 c0 -33 36 -87 66 -98 14 -6 45
-10 70 -10 36 0 51 6 83 35 36 33 43 35 105 35 36 0 66 -2 66 -5 0 -3 -11 -27
-25 -54 -49 -97 -127 -136 -257 -129 -93 5 -133 21 -191 76 -75 72 -100 220
-56 336 25 68 99 139 168 161 60 19 166 13 218 -13z m2043 -1227 l0 -85 55 0
55 0 0 -50 0 -50 -55 0 -55 0 0 -160 c0 -178 1 -180 74 -180 l36 0 0 -60 0
-60 -37 -2 c-75 -3 -149 4 -174 17 -52 27 -54 35 -59 244 l-5 196 -47 3 -48 3
0 49 0 49 48 3 47 3 3 83 3 82 79 0 80 0 0 -85z m-2350 -76 c28 -6 70 -25 93
-43 44 -33 87 -104 87 -143 0 -22 -4 -23 -74 -23 l-74 0 -19 38 c-35 67 -124
79 -177 23 -65 -68 -61 -230 7 -287 58 -49 153 -22 177 51 l12 35 74 0 c70 0
74 -1 74 -22 0 -45 -47 -126 -91 -157 -56 -41 -109 -54 -199 -49 -90 6 -143
30 -193 89 -45 52 -67 116 -67 194 0 216 156 340 370 294z m670 -16 c96 -42
150 -128 158 -249 8 -128 -45 -235 -142 -287 -35 -19 -57 -22 -146 -22 -89 0
-111 3 -146 22 -175 94 -196 381 -38 506 75 58 219 72 314 30z m654 16 c24 -6
55 -22 71 -36 50 -47 55 -73 55 -313 l0 -220 -75 0 -75 0 0 154 c0 241 -18
296 -95 296 -103 0 -117 -32 -123 -267 l-4 -183 -74 0 -74 0 0 280 0 280 75 0
75 0 0 -32 c1 -28 3 -31 13 -18 48 60 138 83 231 59z m620 -19 c51 -24 85 -65
96 -116 l8 -34 -79 0 c-60 0 -79 3 -79 13 0 44 -108 74 -155 43 -56 -37 -18
-74 107 -104 124 -30 173 -54 198 -94 41 -68 15 -180 -53 -226 -48 -32 -91
-42 -182 -42 -92 0 -138 11 -186 43 -36 24 -79 96 -79 134 0 22 4 23 73 23 71
0 73 -1 84 -29 14 -39 53 -63 105 -63 54 -1 86 15 94 48 10 40 -20 60 -131 90
-175 46 -221 85 -211 177 13 119 95 170 263 163 58 -3 95 -10 127 -26z"/>
<path d="M1807 3945 c-74 -15 -94 -27 -108 -62 -22 -59 44 -104 123 -83 52 15
78 51 78 111 0 55 5 53 -93 34z"/>
<path d="M1472 2824 c-30 -16 -62 -58 -62 -84 0 -6 43 -10 120 -10 l120 0 -13
32 c-26 64 -104 93 -165 62z"/>
<path d="M1855 1513 c-56 -14 -95 -83 -95 -165 0 -76 16 -123 52 -153 28 -24
39 -27 85 -23 88 8 123 58 123 178 0 110 -77 186 -165 163z"/>
</g>
</svg>
