<?xml version="1.0" standalone="no"?>
<!DOCTYPE svg PUBLIC "-//W3C//DTD SVG 20010904//EN"
 "http://www.w3.org/TR/2001/REC-SVG-20010904/DTD/svg10.dtd">
<svg version="1.0" xmlns="http://www.w3.org/2000/svg"
 width="743.000000pt" height="347.000000pt" viewBox="0 0 743.000000 347.000000"
 preserveAspectRatio="xMidYMid meet">

<g transform="translate(0.000000,347.000000) scale(0.100000,-0.100000)"
fill="#000000" stroke="none">
<path d="M0 1735 l0 -1735 3715 0 3715 0 0 1735 0 1735 -3715 0 -3715 0 0
-1735z m1473 445 c109 -34 202 -135 221 -242 l7 -38 -90 0 c-84 0 -90 1 -97
23 -24 77 -96 121 -190 115 -52 -3 -70 -9 -101 -34 -56 -44 -86 -111 -91 -204
-11 -185 70 -299 211 -300 87 0 146 46 172 135 l12 40 91 3 92 3 -7 -33 c-34
-181 -142 -283 -319 -303 -275 -31 -482 206 -436 502 27 171 124 291 277 339
62 20 174 17 248 -6z m1531 -19 c193 -95 275 -349 187 -581 -62 -164 -249
-263 -436 -232 -244 40 -381 273 -319 542 26 116 95 211 189 262 74 40 115 48
217 45 85 -4 105 -8 162 -36z m761 15 c101 -43 165 -124 165 -208 l0 -39 -87
3 -87 3 -8 31 c-11 43 -47 73 -102 83 -92 17 -166 -21 -166 -86 0 -46 31 -62
188 -103 144 -37 186 -55 232 -102 44 -43 60 -86 60 -156 0 -43 -7 -72 -26
-111 -51 -101 -150 -146 -319 -145 -121 1 -195 26 -261 86 -46 42 -84 124 -84
178 l0 30 90 0 c88 0 90 -1 90 -24 0 -34 40 -88 80 -108 35 -18 111 -23 169
-12 47 10 81 46 81 88 0 54 -37 77 -190 120 -152 42 -192 61 -237 108 -41 42
-53 76 -53 144 0 109 67 188 195 231 55 18 217 11 270 -11z m-1775 -326 l0
-330 195 0 195 0 0 -80 0 -80 -290 0 -290 0 0 410 0 410 95 0 95 0 0 -330z
m2232 43 c3 -268 4 -290 23 -323 27 -46 76 -70 145 -70 70 0 120 24 142 70 16
31 18 69 18 323 l0 287 96 0 96 0 -4 -307 -3 -308 -28 -57 c-55 -111 -149
-160 -312 -162 -135 -1 -201 20 -271 89 -80 77 -84 99 -84 452 l0 293 89 0 89
0 4 -287z m1167 277 c117 -33 180 -149 151 -279 -10 -46 -21 -64 -61 -103 -27
-27 -43 -48 -35 -48 8 0 27 -15 44 -34 32 -36 52 -105 52 -179 1 -40 11 -96
25 -144 7 -23 6 -23 -83 -23 -50 0 -93 4 -97 10 -3 5 -10 49 -15 97 -14 118
-25 155 -56 184 -24 22 -35 24 -145 28 l-119 3 0 -161 0 -161 -95 0 -95 0 0
410 0 410 248 0 c136 0 262 -4 281 -10z m891 -65 l0 -75 -212 -2 -213 -3 -3
-82 -3 -83 201 0 200 0 0 -75 0 -75 -200 0 -200 0 0 -95 0 -95 220 0 220 0 0
-80 0 -80 -310 0 -310 0 0 410 0 410 305 0 305 0 0 -75z"/>
<path d="M2735 2024 c-84 -43 -125 -126 -125 -254 0 -180 88 -280 236 -268
111 9 183 96 192 233 12 188 -69 305 -213 305 -35 0 -73 -7 -90 -16z"/>
<path d="M5050 1926 l0 -116 98 0 c165 0 212 24 212 109 0 27 -3 57 -6 66 -13
34 -65 49 -186 53 l-118 4 0 -116z"/>
</g>
</svg>
