<?xml version="1.0" standalone="no"?>
<!DOCTYPE svg PUBLIC "-//W3C//DTD SVG 20010904//EN"
 "http://www.w3.org/TR/2001/REC-SVG-20010904/DTD/svg10.dtd">
<svg version="1.0" xmlns="http://www.w3.org/2000/svg"
 width="727.000000pt" height="340.000000pt" viewBox="0 0 727.000000 340.000000"
 preserveAspectRatio="xMidYMid meet">

<g transform="translate(0.000000,340.000000) scale(0.100000,-0.100000)"
fill="#000000" stroke="none">
<path d="M0 1700 l0 -1700 3635 0 3635 0 0 1700 0 1700 -3635 0 -3635 0 0
-1700z m1460 997 c72 -27 150 -104 173 -171 29 -86 29 -86 -67 -86 -83 0 -84
0 -96 30 -17 42 -73 88 -115 96 -141 26 -240 -63 -252 -228 -10 -126 36 -231
120 -275 41 -21 139 -21 171 0 43 28 66 60 80 107 l13 45 88 3 88 3 -7 -43
c-31 -195 -201 -310 -409 -278 -201 30 -327 187 -327 405 0 308 259 496 540
392z m730 0 c71 -26 124 -81 145 -149 24 -81 26 -78 -73 -78 l-88 0 -9 32 c-6
19 -24 42 -45 56 -30 20 -44 23 -103 20 -79 -4 -108 -25 -109 -78 -1 -45 23
-63 124 -89 166 -44 215 -61 256 -91 55 -40 83 -96 83 -168 1 -162 -119 -256
-326 -256 -199 0 -313 83 -340 247 l-6 37 91 0 c87 0 90 -1 90 -22 0 -34 35
-85 72 -104 44 -24 152 -24 196 0 61 32 67 97 12 137 -14 10 -81 34 -150 54
-69 20 -145 46 -170 58 -156 79 -141 306 25 387 89 43 219 46 325 7z m695 2
c87 -32 141 -94 154 -178 l8 -51 -87 0 -87 0 -9 32 c-15 51 -64 78 -141 78
-58 0 -68 -3 -94 -29 -63 -63 -28 -106 121 -145 207 -55 238 -70 289 -141 20
-29 26 -52 29 -104 9 -148 -82 -239 -261 -263 -214 -29 -381 69 -403 235 l-7
48 89 -3 88 -3 7 -35 c9 -42 54 -85 106 -99 51 -14 70 -14 131 4 59 18 87 55
76 100 -10 40 -52 62 -194 102 -205 57 -269 113 -270 234 0 69 18 115 62 158
85 85 255 111 393 60z m-780 -1070 c191 -35 315 -198 315 -414 0 -267 -196
-442 -455 -406 -91 13 -164 51 -223 115 -65 71 -93 146 -100 260 -13 232 97
398 293 441 76 17 98 17 170 4z m827 -15 c97 -31 157 -100 171 -196 l6 -38
-88 0 -87 0 -9 32 c-6 19 -24 42 -45 56 -30 21 -44 23 -104 20 -60 -3 -71 -7
-92 -31 -28 -33 -30 -54 -9 -85 16 -22 60 -37 232 -83 155 -40 223 -111 223
-230 -1 -151 -98 -237 -290 -255 -181 -17 -338 72 -370 208 -18 81 -21 79 77
76 l87 -3 9 -37 c11 -44 52 -83 105 -98 50 -13 69 -13 130 5 83 25 106 82 55
134 -22 21 -61 36 -168 67 -89 25 -156 50 -185 69 -141 94 -110 312 55 381 86
35 200 39 297 8z m1972 16 c155 -25 270 -138 306 -301 18 -81 8 -220 -20 -294
-32 -83 -122 -173 -205 -204 -69 -26 -202 -32 -273 -12 -151 43 -256 182 -269
358 -18 229 112 419 309 452 74 12 85 12 152 1z m-3459 -38 c91 -42 134 -104
142 -207 10 -117 -38 -208 -133 -252 -47 -21 -74 -26 -189 -30 l-135 -6 0
-138 0 -139 -90 0 -90 0 0 393 c0 217 3 397 8 401 4 4 104 6 222 4 198 -3 219
-5 265 -26z m1945 -372 l0 -400 -90 0 -90 0 0 400 0 400 90 0 90 0 0 -400z
m718 323 l3 -73 -121 0 -120 0 0 -325 0 -325 -90 0 -90 0 -2 323 -3 322 -117
3 -118 3 0 68 c0 37 3 71 7 74 4 4 151 6 327 5 l321 -3 3 -72z m242 -323 l0
-400 -90 0 -90 0 0 400 0 400 90 0 90 0 0 -400z m1305 138 l160 -257 3 259 2
260 85 0 85 0 0 -400 0 -401 -92 3 -92 3 -161 258 -160 259 -3 -261 -2 -261
-85 0 -85 0 0 393 c0 217 3 397 7 401 4 4 45 5 92 4 l86 -3 160 -257z"/>
<path d="M1950 1469 c-77 -32 -130 -133 -130 -247 0 -168 77 -264 209 -264 68
0 106 17 149 67 45 50 66 131 59 223 -7 89 -35 151 -90 196 -33 26 -47 31
-105 33 -37 2 -78 -2 -92 -8z"/>
<path d="M4740 1461 c-82 -43 -129 -158 -117 -281 15 -143 89 -222 206 -222
72 0 100 12 145 58 50 51 70 123 64 228 -6 115 -54 196 -131 225 -45 17 -128
13 -167 -8z"/>
<path d="M1138 1475 c-5 -5 -8 -57 -8 -118 l0 -109 114 4 c95 2 117 6 135 22
31 28 42 80 28 123 -20 59 -49 73 -162 79 -55 4 -103 3 -107 -1z"/>
</g>
</svg>
