<?xml version="1.0" standalone="no"?>
<!DOCTYPE svg PUBLIC "-//W3C//DTD SVG 20010904//EN"
 "http://www.w3.org/TR/2001/REC-SVG-20010904/DTD/svg10.dtd">
<svg version="1.0" xmlns="http://www.w3.org/2000/svg"
 width="910.000000pt" height="496.000000pt" viewBox="0 0 910.000000 496.000000"
 preserveAspectRatio="xMidYMid meet">

<g transform="translate(0.000000,496.000000) scale(0.100000,-0.100000)"
fill="#000000" stroke="none">
<path d="M0 2480 l0 -2480 4550 0 4550 0 0 2480 0 2480 -4550 0 -4550 0 0
-2480z m3196 400 c140 -71 215 -207 215 -389 1 -231 -121 -387 -329 -423 -220
-37 -408 87 -463 305 -6 28 -9 85 -7 140 8 156 62 266 168 338 81 55 137 70
252 65 88 -3 105 -7 164 -36z m1539 1 c192 -95 273 -352 184 -584 -62 -162
-247 -260 -435 -229 -128 21 -223 88 -281 199 -112 213 -39 506 152 605 76 40
116 48 217 45 85 -4 105 -8 163 -36z m-3165 9 c117 -32 184 -125 183 -254 0
-119 -47 -194 -147 -237 -41 -17 -77 -23 -183 -27 l-133 -5 0 -143 0 -144 -95
0 -95 0 0 410 0 410 218 0 c119 0 233 -5 252 -10z m825 -14 c28 -13 60 -34 72
-47 81 -88 67 -277 -24 -334 -18 -11 -32 -22 -33 -25 0 -3 13 -12 28 -21 40
-23 64 -81 74 -179 5 -47 15 -109 22 -137 l13 -53 -92 0 c-108 0 -98 -12 -115
139 -18 160 -43 181 -210 181 l-100 0 0 -160 0 -160 -95 0 -95 0 0 410 0 410
253 0 c244 0 254 -1 302 -24z m1725 -51 l0 -74 -122 -3 -123 -3 -3 -332 -2
-333 -90 0 -90 0 -2 333 -3 332 -122 3 -123 3 0 68 c0 37 3 71 7 74 3 4 156 7
340 7 l333 0 0 -75z m1819 -81 c51 -86 95 -154 97 -151 3 3 45 72 93 154 l87
148 107 3 107 3 -155 -256 -155 -255 0 -155 0 -155 -90 0 -90 0 0 157 0 157
-137 230 -138 230 -3 -52 -3 -52 -120 0 -119 0 0 -335 0 -335 -95 0 -95 0 0
335 0 335 -120 0 -120 0 0 75 0 75 429 0 428 0 92 -156z m1024 136 c57 -21
103 -63 133 -120 14 -27 19 -57 19 -125 0 -81 -3 -95 -28 -138 -55 -93 -147
-127 -340 -127 l-97 0 0 -145 0 -145 -90 0 -90 0 0 410 0 410 220 0 c195 0
225 -2 273 -20z m857 -55 l0 -75 -212 -2 -213 -3 -3 -82 -3 -83 198 -2 198 -3
0 -70 0 -70 -197 -3 -198 -2 0 -95 0 -95 220 0 220 0 0 -80 0 -80 -310 0 -310
0 0 410 0 410 305 0 305 0 0 -75z"/>
<path d="M2915 2740 c-78 -40 -119 -129 -119 -255 1 -170 89 -272 229 -263 73
4 120 31 159 91 79 122 49 345 -56 415 -56 37 -155 42 -213 12z"/>
<path d="M4470 2749 c-93 -37 -146 -166 -128 -315 16 -144 103 -223 234 -212
112 9 183 99 192 242 8 125 -35 229 -113 273 -44 25 -138 31 -185 12z"/>
<path d="M1290 2642 l0 -122 96 0 c141 0 190 31 188 119 -3 87 -38 110 -178
118 l-106 6 0 -121z"/>
<path d="M2030 2645 l0 -117 120 4 c101 3 124 7 147 25 55 40 55 136 0 176
-23 18 -46 22 -147 25 l-120 4 0 -117z"/>
<path d="M6650 2641 l0 -121 95 0 c143 0 195 30 195 113 0 50 -21 90 -57 106
-15 7 -74 16 -130 19 l-103 5 0 -122z"/>
</g>
</svg>
