<?xml version="1.0" standalone="no"?>
<!DOCTYPE svg PUBLIC "-//W3C//DTD SVG 20010904//EN"
 "http://www.w3.org/TR/2001/REC-SVG-20010904/DTD/svg10.dtd">
<svg version="1.0" xmlns="http://www.w3.org/2000/svg"
 width="700.000000pt" height="355.000000pt" viewBox="0 0 700.000000 355.000000"
 preserveAspectRatio="xMidYMid meet">

<g transform="translate(0.000000,355.000000) scale(0.100000,-0.100000)"
fill="#000000" stroke="none">
<path d="M0 1775 l0 -1775 3500 0 3500 0 0 1775 0 1775 -3500 0 -3500 0 0
-1775z m1404 345 c82 -31 140 -91 155 -159 6 -29 11 -56 11 -61 0 -6 -42 -10
-95 -10 -79 0 -95 3 -95 15 0 31 -30 72 -62 86 -53 22 -151 18 -185 -7 -31
-23 -38 -43 -29 -79 7 -28 49 -45 201 -81 201 -46 266 -92 286 -199 19 -103
-33 -195 -138 -247 -67 -33 -70 -33 -208 -33 -130 0 -144 2 -195 26 -30 14
-69 38 -87 53 -39 33 -83 119 -83 163 l0 33 90 0 c78 0 91 -3 96 -17 28 -92
74 -122 184 -123 75 0 127 21 149 62 13 22 13 30 2 51 -19 35 -57 52 -201 88
-179 45 -244 82 -276 158 -39 94 2 199 106 264 80 51 261 59 374 17z m813 2
c112 -43 189 -123 234 -241 31 -82 24 -232 -13 -313 -37 -80 -107 -151 -187
-191 -64 -31 -69 -32 -196 -32 -127 0 -132 1 -197 33 -130 64 -204 179 -215
333 -15 206 96 370 287 424 75 20 217 14 287 -13z m543 -302 l0 -310 203 -2
202 -3 0 -75 0 -75 -297 -3 -298 -2 0 390 0 390 95 0 95 0 0 -310z m675 -80
l0 -385 -95 0 -95 0 -3 388 -2 388 97 -3 98 -3 0 -385z m665 361 c119 -50 181
-128 208 -262 13 -67 14 -95 5 -158 -29 -194 -134 -298 -323 -321 -94 -12
-420 -9 -420 3 0 4 0 178 0 388 l0 381 238 -4 c220 -3 241 -5 292 -27z"/>
<path d="M1978 1985 c-31 -10 -58 -29 -81 -56 -96 -112 -78 -332 34 -406 38
-25 51 -28 125 -28 75 0 86 3 125 30 26 18 53 50 68 80 22 43 26 62 26 140 -1
67 -5 99 -19 125 -23 44 -63 88 -98 106 -41 21 -127 26 -180 9z"/>
<path d="M3760 1746 l0 -236 110 0 c91 0 118 4 149 20 79 40 105 101 99 231
-4 79 -8 94 -34 131 -48 69 -81 82 -211 87 l-113 3 0 -236z"/>
</g>
</svg>
