<?xml version="1.0" standalone="no"?>
<!DOCTYPE svg PUBLIC "-//W3C//DTD SVG 20010904//EN"
 "http://www.w3.org/TR/2001/REC-SVG-20010904/DTD/svg10.dtd">
<svg version="1.0" xmlns="http://www.w3.org/2000/svg"
 width="843.000000pt" height="428.000000pt" viewBox="0 0 843.000000 428.000000"
 preserveAspectRatio="xMidYMid meet">

<g transform="translate(0.000000,428.000000) scale(0.100000,-0.100000)"
fill="#000000" stroke="none">
<path d="M0 2140 l0 -2140 4215 0 4215 0 0 2140 0 2140 -4215 0 -4215 0 0
-2140z m1400 1487 c72 -27 150 -104 173 -171 29 -86 29 -86 -67 -86 -83 0 -84
0 -96 30 -17 42 -73 88 -115 96 -141 26 -240 -63 -252 -228 -10 -126 36 -231
120 -275 41 -21 139 -21 171 0 43 28 66 60 80 107 l13 45 88 3 88 3 -7 -43
c-31 -195 -201 -310 -409 -278 -201 30 -327 187 -327 405 0 308 259 496 540
392z m2759 23 c140 -23 251 -123 274 -247 l7 -33 -90 0 c-72 0 -90 3 -90 15 0
20 -57 83 -91 101 -61 31 -174 9 -221 -43 -67 -73 -84 -241 -37 -344 15 -32
41 -67 61 -82 63 -49 160 -54 224 -12 24 15 74 105 74 133 0 9 24 12 85 12
l85 0 0 -30 c0 -96 -88 -219 -192 -265 -55 -25 -75 -28 -153 -28 -102 0 -172
22 -243 74 -141 103 -191 353 -107 536 49 107 159 194 272 213 68 11 71 11
142 0z m-1922 -37 c90 -48 135 -145 114 -243 -15 -72 -35 -105 -78 -131 -24
-15 -32 -24 -22 -27 55 -17 86 -86 98 -216 6 -59 15 -115 21 -126 5 -10 10
-21 10 -24 0 -3 -40 -6 -89 -6 -72 0 -90 3 -95 16 -3 9 -11 59 -17 112 -18
162 -41 182 -209 182 l-100 0 0 -155 0 -155 -90 0 -90 0 0 393 c0 217 3 397 7
401 4 4 118 6 253 4 231 -3 247 -4 287 -25z m413 -373 l0 -400 -90 0 -90 0 0
400 0 400 90 0 90 0 0 -400z m720 325 l0 -74 -117 -3 -118 -3 -3 -322 -2 -323
-90 0 -90 0 0 325 0 325 -120 0 -120 0 0 68 c0 38 3 72 7 75 3 4 152 7 330 7
l323 0 0 -75z m240 -325 l0 -400 -90 0 -90 0 0 400 0 400 90 0 90 0 0 -400z
m1473 6 c81 -216 147 -396 147 -400 0 -3 -42 -6 -93 -6 l-92 0 -30 88 -30 87
-145 0 -145 0 -30 -87 -30 -88 -92 0 -93 0 19 48 c10 26 78 206 151 400 l133
352 91 0 92 0 147 -394z m367 69 l0 -325 195 0 195 0 0 -75 0 -75 -285 0 -285
0 0 393 c0 217 3 397 7 400 3 4 44 7 90 7 l83 0 0 -325z m1596 -776 c93 -35
172 -127 189 -221 l7 -38 -85 0 -85 0 -21 43 c-30 60 -63 81 -137 85 -97 6
-154 -29 -195 -123 -27 -60 -31 -176 -10 -249 21 -71 81 -131 146 -144 115
-24 205 27 229 130 l6 27 -87 3 -88 3 -3 63 -3 62 171 0 170 0 0 -215 0 -215
-60 0 c-59 0 -60 1 -60 28 0 47 -13 55 -41 26 -99 -107 -336 -87 -461 38 -120
120 -150 346 -68 514 87 178 292 255 486 183z m-5616 -13 c61 -32 100 -77 116
-133 28 -95 -5 -206 -73 -245 -33 -20 -34 -22 -15 -29 51 -19 91 -111 92 -214
0 -48 10 -102 25 -137 6 -16 -1 -18 -83 -18 -105 0 -96 -10 -112 128 -18 161
-43 182 -210 182 l-100 0 0 -155 0 -155 -90 0 -90 0 0 393 c0 217 3 397 7 401
4 4 118 6 253 4 216 -3 249 -5 280 -22z m840 -51 l0 -75 -207 -2 -208 -3 -3
-82 -3 -83 196 0 196 0 -3 -67 -3 -68 -192 -3 -193 -2 0 -95 0 -95 215 0 215
0 0 -75 0 -75 -305 0 -305 0 0 400 0 400 300 0 300 0 0 -75z m436 -182 l159
-257 5 254 5 255 83 3 82 3 0 -401 0 -400 -89 0 -89 0 -158 256 -159 256 -3
-256 -2 -256 -85 0 -85 0 0 400 0 400 88 0 88 0 160 -257z m879 246 c121 -22
198 -81 249 -189 30 -62 31 -71 31 -195 0 -139 -12 -191 -61 -264 -28 -42
-114 -107 -162 -122 -22 -7 -126 -14 -254 -16 l-218 -5 0 401 0 401 178 0 c98
0 205 -5 237 -11z m983 -66 l3 -73 -211 0 -210 0 0 -85 0 -85 190 0 190 0 0
-70 0 -70 -190 0 -190 0 0 -95 0 -95 210 0 210 0 0 -75 0 -75 -300 0 -300 0 0
400 0 400 298 -2 297 -3 3 -72z m632 53 c61 -32 100 -77 116 -133 28 -95 -4
-202 -72 -244 -25 -15 -33 -24 -23 -27 55 -17 86 -86 98 -216 6 -59 15 -115
21 -126 5 -10 10 -21 10 -24 0 -3 -40 -6 -89 -6 -104 0 -95 -11 -112 130 -19
161 -41 180 -209 180 l-100 0 0 -155 0 -155 -90 0 -90 0 0 393 c0 217 3 397 7
401 4 4 118 6 253 4 216 -3 249 -5 280 -22z m420 -376 l0 -400 -90 0 -90 0 0
400 0 400 90 0 90 0 0 -400z m465 142 l160 -258 5 255 5 256 83 3 82 3 0 -401
0 -400 -89 0 -90 0 -158 255 -158 254 -5 -252 -5 -252 -82 -3 -83 -3 0 401 0
400 88 0 87 0 160 -258z m-4700 -860 c91 -42 134 -104 142 -207 10 -117 -38
-208 -133 -252 -47 -21 -74 -26 -189 -30 l-135 -6 0 -138 0 -139 -90 0 -90 0
0 393 c0 217 3 397 8 401 4 4 104 6 222 4 198 -3 219 -5 265 -26z m550 11 c37
-93 285 -766 285 -774 0 -6 -35 -9 -92 -7 l-91 3 -30 88 -29 88 -146 -3 -145
-3 -30 -87 -29 -88 -89 0 c-49 0 -89 4 -89 9 0 9 252 679 283 754 l16 37 89 0
c76 0 91 -3 97 -17z m825 -58 l0 -75 -120 0 -120 0 0 -325 0 -325 -90 0 -90 0
-2 323 -3 322 -117 3 -118 3 0 68 c0 37 3 71 7 74 3 4 152 7 330 7 l323 0 0
-75z m240 -80 l0 -155 155 0 154 0 3 153 3 152 88 3 87 3 0 -401 0 -400 -90 0
-90 0 0 170 0 170 -155 0 -155 0 0 -170 0 -170 -90 0 -90 0 0 400 0 400 90 0
90 0 0 -155z"/>
<path d="M1878 3494 c-5 -4 -8 -54 -8 -111 l0 -103 111 0 c132 0 172 14 189
65 8 25 8 45 0 74 -17 62 -43 74 -174 79 -61 2 -114 1 -118 -4z"/>
<path d="M4830 3394 c-26 -67 -80 -227 -80 -235 0 -5 42 -9 94 -9 l95 0 -44
131 c-25 73 -47 134 -50 137 -2 3 -9 -8 -15 -24z"/>
<path d="M1078 2404 c-5 -4 -8 -54 -8 -111 l0 -103 110 0 c139 0 174 12 191
68 9 31 9 48 -1 76 -19 58 -46 69 -174 74 -61 2 -114 1 -118 -4z"/>
<path d="M3350 2151 l0 -251 83 0 c107 0 153 14 198 59 44 44 59 91 59 187 0
117 -41 198 -117 230 -17 7 -74 16 -127 20 l-96 7 0 -252z"/>
<path d="M4848 2404 c-5 -4 -8 -54 -8 -111 l0 -103 110 0 c139 0 174 12 191
68 9 31 9 48 -1 76 -19 58 -46 69 -174 74 -61 2 -114 1 -118 -4z"/>
<path d="M1078 1315 c-5 -5 -8 -57 -8 -118 l0 -109 114 4 c95 2 117 6 135 22
31 28 42 80 28 123 -20 59 -49 73 -162 79 -55 4 -103 3 -107 -1z"/>
<path d="M1787 1112 c-26 -71 -47 -132 -47 -136 0 -3 43 -6 95 -6 52 0 95 2
95 4 0 8 -82 241 -89 254 -5 9 -25 -34 -54 -116z"/>
</g>
</svg>
