<?xml version="1.0" standalone="no"?>
<!DOCTYPE svg PUBLIC "-//W3C//DTD SVG 20010904//EN"
 "http://www.w3.org/TR/2001/REC-SVG-20010904/DTD/svg10.dtd">
<svg version="1.0" xmlns="http://www.w3.org/2000/svg"
 width="741.000000pt" height="373.000000pt" viewBox="0 0 741.000000 373.000000"
 preserveAspectRatio="xMidYMid meet">

<g transform="translate(0.000000,373.000000) scale(0.100000,-0.100000)"
fill="#000000" stroke="none">
<path d="M0 1865 l0 -1865 3705 0 3705 0 0 1865 0 1865 -3705 0 -3705 0 0
-1865z m2309 409 c115 -32 210 -123 253 -241 26 -71 36 -222 19 -290 -55 -218
-243 -342 -463 -305 -205 35 -327 188 -329 412 -1 136 31 230 105 317 41 47
124 98 182 112 62 14 173 12 233 -5z m1152 -16 c94 -44 148 -118 149 -201 l0
-38 -87 3 -87 3 -8 31 c-11 43 -47 73 -102 83 -92 17 -166 -21 -166 -86 0 -45
25 -59 189 -103 153 -42 185 -56 230 -101 68 -68 82 -177 33 -270 -51 -99
-152 -144 -317 -143 -79 1 -112 5 -159 24 -105 40 -171 120 -183 221 l-6 49
92 0 c89 0 91 -1 91 -24 0 -34 40 -88 80 -108 40 -20 133 -24 177 -7 46 17 73
49 73 85 0 51 -39 76 -190 118 -185 52 -245 87 -276 162 -18 44 -18 132 1 177
43 103 157 159 316 154 77 -3 106 -9 150 -29z m2599 1 c31 -15 72 -41 93 -58
38 -34 81 -112 92 -168 l7 -33 -89 0 -88 0 -25 47 c-31 58 -76 83 -147 83 -63
0 -99 -13 -136 -48 -105 -99 -107 -344 -5 -439 90 -85 254 -65 306 37 38 77
35 80 -68 80 l-91 0 3 68 3 67 173 3 172 2 0 -225 0 -225 -59 0 -59 0 -7 40
c-4 22 -8 40 -10 40 -2 0 -17 -12 -32 -26 -114 -107 -340 -90 -471 36 -195
188 -148 584 83 703 74 38 117 47 210 44 71 -2 102 -8 145 -28z m-4880 -144
l0 -155 165 0 165 0 0 155 0 155 90 0 90 0 0 -410 0 -410 -90 0 -90 0 0 175 0
175 -165 0 -165 0 0 -175 0 -175 -90 0 -90 0 0 410 0 410 90 0 90 0 0 -155z
m1690 -255 l0 -410 -90 0 -90 0 0 410 0 410 90 0 90 0 0 -410z m1460 335 l0
-75 -120 0 -120 0 -2 -332 -3 -333 -92 -3 -93 -3 0 336 0 335 -120 0 -120 0 0
75 0 75 335 0 335 0 0 -75z m250 -335 l0 -410 -90 0 -90 0 0 410 0 410 90 0
90 0 0 -410z m480 145 l165 -265 3 265 2 265 85 0 85 0 0 -410 0 -411 -92 3
-92 3 -157 254 c-87 140 -163 259 -169 265 -7 7 -10 -73 -10 -257 l0 -267 -85
0 -85 0 0 410 0 410 93 0 92 0 165 -265z"/>
<path d="M2091 2108 c-82 -40 -130 -157 -118 -286 14 -146 94 -232 217 -232
130 0 213 104 214 265 0 89 -14 141 -53 197 -53 76 -169 101 -260 56z"/>
</g>
</svg>
