<?xml version="1.0" standalone="no"?>
<!DOCTYPE svg PUBLIC "-//W3C//DTD SVG 20010904//EN"
 "http://www.w3.org/TR/2001/REC-SVG-20010904/DTD/svg10.dtd">
<svg version="1.0" xmlns="http://www.w3.org/2000/svg"
 width="687.000000pt" height="442.000000pt" viewBox="0 0 687.000000 442.000000"
 preserveAspectRatio="xMidYMid meet">

<g transform="translate(0.000000,442.000000) scale(0.100000,-0.100000)"
fill="#000000" stroke="none">
<path d="M0 2210 l0 -2210 3435 0 3435 0 0 2210 0 2210 -3435 0 -3435 0 0
-2210z m1789 1207 c47 -147 88 -264 92 -260 4 5 41 116 83 248 42 132 81 250
86 263 9 20 16 22 100 22 49 0 90 -2 90 -5 0 -3 -59 -183 -130 -400 l-131
-395 -102 0 -102 0 -125 386 c-69 213 -126 393 -128 401 -3 11 13 13 89 11
l94 -3 84 -268z m846 256 c37 -93 285 -766 285 -774 0 -6 -35 -9 -92 -7 l-91
3 -30 88 -29 88 -146 -3 -145 -3 -30 -87 -29 -88 -89 0 c-49 0 -89 4 -89 9 0
9 252 679 283 754 l16 37 89 0 c76 0 91 -3 97 -17z m825 6 c66 -15 115 -53
145 -112 46 -92 26 -211 -45 -268 l-38 -31 33 -29 c38 -34 65 -102 66 -168 0
-46 11 -117 24 -158 7 -23 6 -23 -83 -23 l-90 0 -6 28 c-3 15 -10 67 -16 117
-16 143 -41 165 -197 165 l-103 0 0 -155 0 -155 -90 0 -90 0 0 400 0 400 223
0 c122 0 242 -5 267 -11z m-1678 -1401 l3 -323 193 -3 192 -2 0 -75 0 -75
-285 0 -285 0 0 393 c0 217 3 397 7 400 3 4 44 7 90 7 l83 0 2 -322z m1056
245 l3 -73 -211 0 -210 0 0 -85 0 -85 190 0 190 0 0 -70 0 -70 -190 0 -190 0
0 -95 0 -95 215 0 216 0 -3 -72 -3 -73 -302 -3 -303 -2 0 400 0 400 298 -2
297 -3 3 -72z m692 2 l0 -75 -120 0 -120 0 0 -325 0 -325 -90 0 -90 0 0 325 0
325 -120 0 -120 0 0 68 c0 38 3 72 7 75 3 4 152 7 330 7 l323 0 0 -75z m-1420
-1028 c72 -27 150 -104 173 -171 29 -86 29 -86 -67 -86 -83 0 -84 0 -96 30
-17 42 -73 88 -115 96 -141 26 -240 -63 -252 -228 -10 -126 36 -231 120 -275
41 -21 139 -21 171 0 43 28 66 60 80 107 l13 45 88 3 88 3 -7 -43 c-31 -195
-201 -310 -409 -278 -201 30 -327 187 -327 405 0 308 259 496 540 392z m740
19 c189 -41 300 -192 300 -411 0 -121 -33 -213 -105 -293 -83 -92 -214 -133
-353 -112 -197 31 -322 188 -322 405 0 213 116 371 300 411 73 16 103 16 180
0z m1630 -19 c71 -26 124 -81 145 -149 24 -81 26 -78 -73 -78 l-88 0 -9 32
c-6 19 -24 42 -45 56 -30 20 -44 23 -103 20 -79 -4 -108 -25 -109 -78 -1 -45
23 -63 124 -89 166 -44 215 -61 256 -91 55 -40 83 -96 83 -168 1 -162 -119
-256 -326 -256 -199 0 -313 83 -340 247 l-6 37 91 0 c87 0 90 -1 90 -22 0 -34
35 -85 72 -104 44 -24 152 -24 196 0 61 32 67 97 12 137 -14 10 -81 34 -150
54 -69 20 -145 46 -170 58 -156 79 -141 306 25 387 89 43 219 46 325 7z m-896
-250 l161 -257 3 260 2 260 85 0 85 0 0 -400 0 -400 -92 0 -93 1 -160 259
-160 260 -3 -260 -2 -260 -85 0 -85 0 0 393 c0 217 3 397 7 401 4 4 45 5 92 4
l85 -3 160 -258z m1746 188 l0 -75 -115 0 -115 0 -2 -322 -3 -323 -87 -3 -88
-3 -2 323 -3 323 -117 3 -118 3 0 74 0 75 325 0 325 0 0 -75z"/>
<path d="M2487 3342 c-26 -71 -47 -132 -47 -136 0 -3 43 -6 95 -6 52 0 95 2
95 4 0 8 -82 241 -89 254 -5 9 -25 -34 -54 -116z"/>
<path d="M3150 3441 l0 -111 108 0 c132 0 172 15 186 72 12 49 -2 96 -36 121
-23 17 -47 21 -143 25 l-115 5 0 -112z"/>
<path d="M2675 1356 c-70 -31 -113 -107 -122 -216 -10 -122 32 -227 109 -270
57 -32 144 -30 201 3 152 89 139 417 -20 483 -41 18 -129 17 -168 0z"/>
</g>
</svg>
