<?xml version="1.0" standalone="no"?>
<!DOCTYPE svg PUBLIC "-//W3C//DTD SVG 20010904//EN"
 "http://www.w3.org/TR/2001/REC-SVG-20010904/DTD/svg10.dtd">
<svg version="1.0" xmlns="http://www.w3.org/2000/svg"
 width="734.000000pt" height="558.000000pt" viewBox="0 0 734.000000 558.000000"
 preserveAspectRatio="xMidYMid meet">
<metadata>
Created by potrace 1.16, written by Peter Selinger 2001-2019
</metadata>
<g transform="translate(0.000000,558.000000) scale(0.100000,-0.100000)"
fill="#000000" stroke="none">
<path d="M0 2790 l0 -2790 3670 0 3670 0 0 2790 0 2790 -3670 0 -3670 0 0
-2790z m2019 1805 c136 -18 261 -140 286 -278 l7 -38 -98 3 -98 3 -7 29 c-18
66 -97 119 -179 119 -147 0 -233 -107 -233 -293 -1 -176 89 -290 228 -290 98
0 172 61 191 158 l7 32 98 0 99 0 -6 -32 c-30 -171 -133 -283 -292 -317 -238
-50 -457 86 -512 318 -16 69 -16 193 0 262 42 176 179 307 344 328 60 8 78 8
165 -4z m806 0 c136 -17 232 -105 250 -228 l7 -48 -98 3 -98 3 -8 32 c-17 64
-112 107 -198 88 -49 -11 -90 -51 -90 -89 0 -58 39 -79 230 -126 107 -26 135
-37 187 -72 115 -78 135 -257 41 -364 -120 -137 -421 -152 -581 -30 -50 38
-95 122 -99 186 l-3 45 96 3 96 3 6 -38 c14 -82 76 -122 190 -123 98 0 160 39
160 100 0 59 -42 86 -205 130 -145 40 -221 74 -259 118 -41 46 -51 76 -51 149
-1 138 98 239 259 262 57 8 69 8 168 -4z m821 -11 c113 -31 204 -131 204 -225
l0 -39 -94 0 -93 0 -7 30 c-8 42 -45 76 -97 90 -111 30 -215 -26 -195 -105 9
-37 54 -60 180 -91 153 -37 212 -61 258 -102 58 -52 78 -98 78 -180 0 -124
-70 -216 -195 -257 -110 -35 -270 -29 -371 14 -92 41 -161 132 -171 226 l-6
55 95 0 96 0 6 -35 c8 -43 50 -94 93 -111 45 -19 157 -18 199 2 70 33 85 96
35 143 -30 28 -49 35 -231 87 -113 32 -157 53 -199 95 -43 42 -61 90 -61 158
0 199 225 314 476 245z m-809 -1194 c172 -22 310 -150 352 -325 16 -64 16
-207 0 -270 -57 -232 -278 -365 -521 -314 -117 25 -236 117 -281 219 -69 154
-62 360 17 494 60 102 179 181 295 196 31 4 58 8 61 8 3 1 37 -3 77 -8z m-734
-40 c88 -33 127 -93 127 -197 0 -69 -28 -126 -77 -159 l-33 -22 29 -12 c38
-15 87 -67 105 -112 41 -96 5 -238 -72 -291 -86 -60 -95 -62 -384 -65 l-268
-3 0 440 0 441 260 0 c235 0 264 -2 313 -20z m1450 -110 c43 -72 82 -130 86
-130 4 0 44 59 90 130 l82 130 110 0 c85 0 109 -3 103 -12 -4 -7 -67 -101
-140 -209 l-133 -196 150 -224 c82 -123 149 -228 149 -232 0 -4 -52 -6 -117
-5 l-116 3 -88 140 c-49 77 -92 141 -96 142 -5 2 -50 -62 -101 -142 l-94 -145
-109 0 c-60 0 -109 2 -109 5 0 2 66 105 147 227 80 123 146 228 146 233 0 6
-62 101 -137 213 l-137 202 118 0 118 -1 78 -129z m-466 -1060 c172 -22 310
-150 352 -325 16 -64 16 -207 0 -270 -57 -232 -278 -365 -521 -314 -117 25
-236 117 -281 219 -69 154 -62 360 17 494 60 102 179 181 295 196 31 4 58 8
61 8 3 1 37 -3 77 -8z m-1175 -315 c54 -159 100 -290 101 -292 2 -1 45 130 97
292 l94 295 138 0 138 0 0 -440 0 -440 -90 0 -90 0 -2 303 -3 302 -104 -302
-105 -303 -77 0 -78 0 -19 53 c-10 28 -57 161 -103 294 l-84 242 -3 -294 -2
-295 -95 0 -95 0 0 440 0 441 141 -3 142 -3 99 -290z m2159 281 c68 -21 100
-39 147 -85 76 -74 122 -200 122 -336 -1 -176 -70 -322 -184 -389 -81 -47
-140 -56 -378 -56 l-218 0 0 440 0 440 233 0 c171 0 244 -4 278 -14z m1039
-66 l0 -80 -232 -2 -233 -3 0 -90 0 -90 213 -3 212 -2 0 -75 0 -75 -212 -2
-213 -3 -3 -102 -3 -103 238 -2 238 -3 3 -83 3 -82 -338 2 -338 3 -3 438 -2
437 335 0 335 0 0 -80z m310 -275 l0 -355 210 0 210 0 0 -85 0 -85 -310 0
-310 0 0 440 0 440 100 0 100 0 0 -355z"/>
<path d="M2705 3216 c-66 -18 -127 -83 -149 -156 -18 -62 -21 -187 -5 -244 28
-102 103 -167 199 -174 158 -11 253 97 252 288 -1 173 -73 276 -207 294 -22 3
-62 -1 -90 -8z"/>
<path d="M1730 3120 l0 -100 115 0 c126 0 159 9 181 51 29 57 10 110 -48 133
-26 11 -72 16 -143 16 l-105 0 0 -100z"/>
<path d="M1730 2765 l0 -115 125 0 c179 0 215 19 215 112 0 94 -44 118 -215
118 l-125 0 0 -115z"/>
<path d="M2955 2006 c-66 -18 -127 -83 -149 -156 -18 -62 -21 -187 -5 -244 28
-102 103 -167 199 -174 158 -11 252 96 252 288 -1 173 -73 276 -207 294 -22 3
-62 -1 -90 -8z"/>
<path d="M3760 1727 l0 -277 108 0 c122 0 170 16 215 69 73 88 77 293 6 391
-43 59 -96 80 -224 87 l-105 6 0 -276z"/>
</g>
</svg>
